<svg width="500" height="500" viewBox="0 0 500 500" fill="none" xmlns="http://www.w3.org/2000/svg">
<path fill-rule="evenodd" clip-rule="evenodd" d="M288.448 470.201C382.929 454.131 457.345 379.158 472.583 284.397H463.024C448.005 373.969 377.731 444.808 288.448 460.67V470.201ZM288.448 36.3304C378.326 52.2976 448.941 123.978 463.317 214.397H472.896C458.389 118.691 383.593 42.7756 288.448 26.5921V36.3304ZM223.448 25V34.6816C128.423 46.5827 52.6352 120.354 37.6833 214.397H28C43.0611 115.032 123.111 36.9995 223.448 25ZM223.448 462.318V471.793C123.785 459.874 44.1378 382.807 28.3124 284.397H37.9762C53.6008 377.582 129.028 450.493 223.448 462.318Z" fill="#9600CD"/>
<path d="M108.368 266.907L74.5664 250.391V246.655L108.368 230.139V235.999L82.1836 248.523L108.368 261.047V266.907ZM376.471 221.46L353.509 275H346.991L369.952 221.46H376.471ZM389.874 261.047L416.021 248.523L389.874 235.999V230.139L423.675 246.655V250.391L389.874 266.907V261.047Z" fill="#F7FF00"/>
<path d="M152.276 275H120.709V270.422L144.879 239.807H121.917V234.79H151.617V240.137L127.923 269.983H152.276V275ZM178.57 223.254L168.756 222.485V218.018H185.272V269.763L198.163 270.496V275H165.973V270.496L178.57 269.763V223.254ZM242.987 236.218L240.716 242.004C237.054 240.613 233.783 239.917 230.902 239.917C221.844 239.917 217.315 244.958 217.315 255.042C217.315 264.954 221.722 269.91 230.536 269.91C234.369 269.91 238.287 269.153 242.291 267.639V273.499C239.02 274.988 235.003 275.732 230.243 275.732C223.968 275.732 219.098 273.962 215.631 270.422C212.164 266.858 210.431 261.755 210.431 255.115C210.431 248.254 212.201 243.03 215.741 239.441C219.281 235.852 224.261 234.058 230.682 234.058C235.028 234.058 239.129 234.778 242.987 236.218ZM256.61 273.206V267.126C261.322 269.226 265.838 270.276 270.16 270.276C276.874 270.276 280.23 268.298 280.23 264.343C280.23 262.952 279.632 261.743 278.436 260.718C277.24 259.692 274.481 258.398 270.16 256.836C264.471 254.712 260.882 252.771 259.393 251.013C257.928 249.231 257.196 247.131 257.196 244.714C257.196 241.394 258.551 238.794 261.261 236.914C263.995 235.01 267.767 234.058 272.577 234.058C277.411 234.058 281.915 234.961 286.09 236.768L283.893 242.224C279.449 240.466 275.555 239.587 272.21 239.587C266.449 239.587 263.568 241.211 263.568 244.458C263.568 245.947 264.178 247.144 265.399 248.047C266.644 248.926 269.488 250.159 273.932 251.746C279.083 253.625 282.501 255.481 284.186 257.312C285.895 259.119 286.749 261.34 286.749 263.977C286.749 267.639 285.321 270.52 282.464 272.62C279.608 274.695 275.567 275.732 270.343 275.732C264.288 275.732 259.71 274.89 256.61 273.206ZM333.075 236.218L330.804 242.004C327.142 240.613 323.871 239.917 320.99 239.917C311.932 239.917 307.403 244.958 307.403 255.042C307.403 264.954 311.81 269.91 320.624 269.91C324.457 269.91 328.375 269.153 332.379 267.639V273.499C329.107 274.988 325.091 275.732 320.331 275.732C314.056 275.732 309.186 273.962 305.719 270.422C302.252 266.858 300.519 261.755 300.519 255.115C300.519 248.254 302.289 243.03 305.829 239.441C309.369 235.852 314.349 234.058 320.77 234.058C325.116 234.058 329.217 234.778 333.075 236.218Z" fill="#FF00BB"/>
</svg>
